<svg xmlns="http://www.w3.org/2000/svg" viewBox="-19.33 -26.79 3110.53 945.85"><path d="M 416.33 527.25 A 250 250 0 1 1 741.48 226.97 L 649.25 251.68 A 154.51 154.51 0 1 0 441.18 434.55 A 88 88 0 0 0 416.33 527.25 Z" fill="#2D432B"/><path d="M 518.24 413.91 A 250 250 0 1 1 615.71 845.65 L 640.43 753.41 A 154.51 154.51 0 1 0 586.09 481.79 A 88 88 0 0 0 518.24 413.91 Z" fill="#2A5D5B"/><path d="M 565.44 558.84 A 250 250 0 1 1 142.8 427.39 L 210.33 494.91 A 154.51 154.51 0 1 0 472.73 583.67 A 88 88 0 0 0 565.44 558.84 Z" fill="#D06E53"/><path d="M 439 500 A 61 61 0 1 1 561 500 A 61 61 0 1 1 439 500 Z" fill="#9C7C46"/><path d="M1215.9 283.8Q1189.5 283.8 1167.0 274.5Q1144.6 265.1 1127.8 248.2Q1111.0 231.4 1101.9 208.9Q1092.8 186.4 1092.8 160.6Q1092.8 134.6 1101.9 112.2Q1111.0 89.8 1127.8 73.1Q1144.5 56.4 1166.9 46.9Q1189.3 37.4 1215.7 37.4Q1244.5 37.4 1266.2 46.8Q1287.8 56.2 1304.4 72.3L1273.2 103.6Q1263.3 92.8 1249.0 86.6Q1234.7 80.5 1215.7 80.5Q1199.0 80.5 1185.2 86.2Q1171.4 91.9 1161.3 102.6Q1151.2 113.3 1145.7 128.0Q1140.2 142.8 1140.2 160.6Q1140.2 178.4 1145.7 193.2Q1151.2 208.0 1161.3 218.6Q1171.4 229.3 1185.2 235.1Q1199.0 240.8 1215.7 240.8Q1235.9 240.8 1250.2 234.6Q1264.6 228.5 1274.7 217.5L1306.1 248.8Q1289.3 265.2 1267.1 274.5Q1244.9 283.8 1215.9 283.8Z" fill="#2D432B"/><path d="M1402.1 283.7Q1379.7 283.7 1361.7 272.4Q1343.8 261.2 1333.5 241.9Q1323.2 222.6 1323.2 198.3Q1323.2 173.8 1333.5 154.5Q1343.8 135.1 1361.7 123.8Q1379.7 112.5 1402.1 112.5Q1419.8 112.5 1433.8 119.7Q1447.7 127.0 1456.2 139.6Q1464.7 152.3 1465.2 168.5V227.7Q1464.7 243.9 1456.3 256.5Q1448.0 269.2 1433.9 276.4Q1419.8 283.7 1402.1 283.7ZM1410.5 242.5Q1429.2 242.5 1440.7 230.0Q1452.1 217.6 1452.1 198.1Q1452.1 185.0 1447.0 175.0Q1441.8 165.0 1432.4 159.3Q1423.0 153.7 1410.5 153.7Q1398.3 153.7 1388.9 159.3Q1379.6 165.0 1374.2 175.0Q1368.8 185.1 1368.8 198.1Q1368.8 211.1 1374.1 221.1Q1379.5 231.2 1388.9 236.8Q1398.3 242.5 1410.5 242.5ZM1449.8 280.3V236.1L1457.0 196.0L1449.8 156.3V115.9H1494.2V280.3Z M1644.1 280.3V186.1Q1644.1 171.4 1634.9 162.1Q1625.7 152.9 1611.4 152.9Q1601.7 152.9 1594.2 157.1Q1586.7 161.2 1582.5 168.8Q1578.2 176.3 1578.2 186.1L1560.8 177.1Q1560.8 157.9 1569.2 143.4Q1577.6 128.9 1592.3 120.7Q1607.1 112.5 1625.8 112.5Q1644.0 112.5 1658.3 121.5Q1672.5 130.5 1680.7 145.1Q1688.8 159.6 1688.8 176.1V280.3ZM1533.5 280.3V115.9H1578.2V280.3Z M1835.4 280.3V186.1Q1835.4 171.4 1826.2 162.1Q1817.0 152.9 1802.7 152.9Q1792.9 152.9 1785.4 157.1Q1777.9 161.2 1773.7 168.8Q1769.5 176.3 1769.5 186.1L1752.1 177.1Q1752.1 157.9 1760.4 143.4Q1768.8 128.9 1783.6 120.7Q1798.4 112.5 1817.1 112.5Q1835.3 112.5 1849.5 121.5Q1863.8 130.5 1872.0 145.1Q1880.1 159.6 1880.1 176.1V280.3ZM1724.8 280.3V115.9H1769.5V280.3Z M1984.8 283.7Q1962.3 283.7 1944.4 272.4Q1926.5 261.2 1916.2 241.9Q1905.8 222.6 1905.8 198.3Q1905.8 173.8 1916.2 154.5Q1926.5 135.1 1944.4 123.8Q1962.3 112.5 1984.8 112.5Q2002.5 112.5 2016.4 119.7Q2030.4 127.0 2038.8 139.6Q2047.3 152.3 2047.9 168.5V227.7Q2047.3 243.9 2039.0 256.5Q2030.6 269.2 2016.6 276.4Q2002.5 283.7 1984.8 283.7ZM1993.1 242.5Q2011.8 242.5 2023.3 230.0Q2034.8 217.6 2034.8 198.1Q2034.8 185.0 2029.6 175.0Q2024.4 165.0 2015.1 159.3Q2005.7 153.7 1993.2 153.7Q1980.9 153.7 1971.6 159.3Q1962.2 165.0 1956.8 175.0Q1951.4 185.1 1951.4 198.1Q1951.4 211.1 1956.8 221.1Q1962.1 231.2 1971.5 236.8Q1980.9 242.5 1993.1 242.5ZM2032.5 280.3V236.1L2039.7 196.0L2032.5 156.3V115.9H2076.8V280.3Z M2207.5 283.7Q2189.7 283.7 2175.4 276.2Q2161.2 268.8 2152.6 255.9Q2144.0 243.0 2143.4 226.8V168.5Q2144.0 152.3 2152.7 139.6Q2161.4 127.0 2175.7 119.7Q2190.0 112.5 2207.5 112.5Q2230.3 112.5 2248.4 123.8Q2266.4 135.1 2276.8 154.5Q2287.2 173.8 2287.2 198.3Q2287.2 222.6 2276.8 241.9Q2266.4 261.2 2248.4 272.4Q2230.3 283.7 2207.5 283.7ZM2116.1 280.3V34.2H2160.9V156.3L2153.3 196.0L2160.5 236.1V280.3ZM2199.9 242.5Q2212.1 242.5 2221.5 236.8Q2230.8 231.2 2236.2 221.1Q2241.6 211.1 2241.6 198.1Q2241.6 185.1 2236.2 175.0Q2230.8 165.0 2221.4 159.3Q2212.0 153.7 2199.8 153.7Q2187.5 153.7 2178.0 159.3Q2168.6 165.0 2163.4 175.0Q2158.2 185.0 2158.2 198.1Q2158.2 211.2 2163.4 221.2Q2168.6 231.3 2178.1 236.9Q2187.6 242.5 2199.9 242.5Z M2316.4 280.3V115.9H2361.2V280.3ZM2338.8 89.5Q2328.0 89.5 2320.9 82.2Q2313.7 74.8 2313.7 64.0Q2313.7 53.2 2320.9 45.8Q2328.0 38.5 2338.8 38.5Q2350.0 38.5 2356.9 45.8Q2363.9 53.2 2363.9 64.0Q2363.9 74.8 2356.9 82.2Q2350.0 89.5 2338.8 89.5Z M2457.4 284.1Q2443.3 284.1 2429.9 280.4Q2416.6 276.7 2405.3 269.9Q2394.0 263.2 2385.9 253.7L2412.5 226.8Q2420.9 236.3 2432.1 241.2Q2443.2 246.1 2456.8 246.1Q2467.7 246.1 2473.4 242.9Q2479.0 239.7 2479.0 233.6Q2479.0 226.8 2473.0 223.2Q2467.0 219.5 2457.6 216.8Q2448.1 214.2 2437.7 211.1Q2427.2 208.0 2417.7 202.6Q2408.2 197.2 2402.3 187.8Q2396.3 178.4 2396.3 163.5Q2396.3 147.8 2404.1 136.3Q2411.8 124.7 2426.0 118.3Q2440.2 111.9 2459.7 111.9Q2480.0 111.9 2496.6 119.0Q2513.1 126.1 2523.9 140.3L2497.1 167.2Q2489.7 158.2 2480.2 154.1Q2470.8 149.9 2460.1 149.9Q2450.1 149.9 2444.9 152.9Q2439.6 156.0 2439.6 161.5Q2439.6 167.5 2445.6 170.9Q2451.5 174.3 2461.0 176.9Q2470.4 179.5 2480.9 182.7Q2491.3 186.0 2500.7 191.7Q2510.2 197.5 2516.1 207.0Q2522.1 216.5 2522.1 231.8Q2522.1 255.9 2504.6 270.0Q2487.2 284.1 2457.4 284.1Z" fill="#1C2420"/><path d="M1215.9 571.0Q1189.5 571.0 1167.0 561.6Q1144.6 552.2 1127.8 535.3Q1111.0 518.5 1101.9 496.0Q1092.8 473.5 1092.8 447.7Q1092.8 421.7 1101.9 399.3Q1111.0 376.9 1127.8 360.2Q1144.5 343.5 1166.9 334.0Q1189.3 324.6 1215.7 324.6Q1244.5 324.6 1266.2 333.9Q1287.8 343.3 1304.4 359.4L1273.2 390.7Q1263.3 379.9 1249.0 373.7Q1234.7 367.6 1215.7 367.6Q1199.0 367.6 1185.2 373.3Q1171.4 379.0 1161.3 389.7Q1151.2 400.4 1145.7 415.1Q1140.2 429.9 1140.2 447.7Q1140.2 465.5 1145.7 480.3Q1151.2 495.1 1161.3 505.7Q1171.4 516.4 1185.2 522.2Q1199.0 527.9 1215.7 527.9Q1235.9 527.9 1250.2 521.7Q1264.6 515.6 1274.7 504.6L1306.1 535.9Q1289.3 552.3 1267.1 561.6Q1244.9 571.0 1215.9 571.0Z" fill="#2A5D5B"/><path d="M1444.0 567.4V473.2Q1444.0 458.5 1434.8 449.2Q1425.6 440.0 1411.3 440.0Q1401.5 440.0 1394.0 444.2Q1386.5 448.4 1382.3 455.9Q1378.1 463.4 1378.1 473.2L1360.7 464.2Q1360.7 445.0 1368.9 430.5Q1377.1 416.0 1391.6 407.8Q1406.1 399.6 1424.8 399.6Q1443.6 399.6 1458.0 407.7Q1472.5 415.8 1480.6 430.1Q1488.7 444.4 1488.7 463.2V567.4ZM1333.4 567.4V321.3H1378.1V567.4Z M1593.4 570.8Q1570.9 570.8 1553.0 559.6Q1535.1 548.3 1524.8 529.0Q1514.4 509.7 1514.4 485.4Q1514.4 460.9 1524.8 441.6Q1535.1 422.2 1553.0 410.9Q1570.9 399.6 1593.4 399.6Q1611.1 399.6 1625.0 406.8Q1639.0 414.1 1647.5 426.7Q1655.9 439.4 1656.5 455.6V514.8Q1655.9 531.0 1647.6 543.6Q1639.2 556.3 1625.2 563.6Q1611.1 570.8 1593.4 570.8ZM1601.7 529.6Q1620.4 529.6 1631.9 517.1Q1643.4 504.7 1643.4 485.2Q1643.4 472.1 1638.2 462.1Q1633.0 452.1 1623.7 446.4Q1614.3 440.8 1601.8 440.8Q1589.6 440.8 1580.2 446.4Q1570.8 452.1 1565.4 462.1Q1560.0 472.2 1560.0 485.2Q1560.0 498.2 1565.4 508.2Q1570.8 518.3 1580.2 523.9Q1589.6 529.6 1601.7 529.6ZM1641.1 567.4V523.2L1648.3 483.1L1641.1 443.4V403.0H1685.4V567.4Z M1724.8 567.4V403.0H1769.5V567.4ZM1832.0 567.4V470.4Q1832.0 456.0 1823.0 448.0Q1814.1 440.0 1800.9 440.0Q1791.9 440.0 1784.8 443.6Q1777.8 447.2 1773.6 454.0Q1769.5 460.8 1769.5 470.4L1752.1 461.9Q1752.1 442.7 1760.4 428.9Q1768.8 415.0 1783.1 407.3Q1797.4 399.6 1815.3 399.6Q1832.6 399.6 1846.5 407.3Q1860.4 414.9 1868.5 428.7Q1876.7 442.6 1876.7 461.8V567.4ZM1939.2 567.4V470.4Q1939.2 456.0 1930.2 448.0Q1921.3 440.0 1908.1 440.0Q1899.3 440.0 1892.2 443.6Q1885.0 447.2 1880.8 454.0Q1876.7 460.8 1876.7 470.4L1851.1 464.3Q1852.4 444.4 1861.6 430.0Q1870.8 415.6 1885.9 407.6Q1900.9 399.6 1919.3 399.6Q1937.6 399.6 1952.1 407.3Q1966.7 415.1 1975.3 429.3Q1983.9 443.5 1983.9 463.4V567.4Z M2111.2 570.8Q2093.4 570.8 2079.1 563.3Q2064.8 555.9 2056.3 543.0Q2047.7 530.1 2047.1 514.0V455.6Q2047.7 439.4 2056.4 426.7Q2065.1 414.1 2079.4 406.8Q2093.7 399.6 2111.2 399.6Q2134.0 399.6 2152.0 410.9Q2170.1 422.2 2180.5 441.6Q2190.8 460.9 2190.8 485.4Q2190.8 509.7 2180.5 529.0Q2170.1 548.3 2152.0 559.6Q2134.0 570.8 2111.2 570.8ZM2019.8 567.4V321.3H2064.6V443.4L2057.0 483.1L2064.2 523.2V567.4ZM2103.5 529.6Q2115.8 529.6 2125.2 523.9Q2134.5 518.3 2139.9 508.2Q2145.2 498.2 2145.2 485.2Q2145.2 472.2 2139.9 462.1Q2134.5 452.1 2125.1 446.4Q2115.7 440.8 2103.5 440.8Q2091.2 440.8 2081.7 446.4Q2072.2 452.1 2067.0 462.1Q2061.9 472.1 2061.9 485.2Q2061.9 498.3 2067.1 508.3Q2072.3 518.4 2081.8 524.0Q2091.3 529.6 2103.5 529.6Z M2298.6 571.0Q2273.0 571.0 2252.7 559.9Q2232.5 548.8 2220.9 529.3Q2209.2 509.8 2209.2 485.2Q2209.2 460.7 2220.7 441.3Q2232.1 422.0 2251.8 410.7Q2271.5 399.4 2295.8 399.4Q2319.4 399.4 2337.6 410.0Q2355.7 420.6 2366.1 439.2Q2376.5 457.7 2376.5 481.4Q2376.5 485.8 2376.0 490.4Q2375.5 495.0 2374.3 500.7L2235.9 500.9V467.7L2353.5 467.5L2335.3 481.2Q2334.8 466.6 2330.2 456.7Q2325.5 446.9 2316.9 441.7Q2308.3 436.5 2295.6 436.5Q2282.3 436.5 2272.5 442.4Q2262.7 448.3 2257.4 458.9Q2252.1 469.6 2252.1 484.5Q2252.1 499.5 2257.8 510.5Q2263.4 521.5 2273.9 527.4Q2284.4 533.3 2298.4 533.3Q2310.8 533.3 2321.1 529.1Q2331.4 524.8 2338.9 516.2L2365.1 542.6Q2353.0 556.7 2335.8 563.8Q2318.6 571.0 2298.6 571.0Z M2404.1 567.4V403.0H2448.8V567.4ZM2448.8 476.6 2431.4 464.9Q2434.6 434.8 2449.2 417.2Q2463.9 399.6 2491.3 399.6Q2503.4 399.6 2512.8 403.6Q2522.3 407.6 2530.0 416.3L2502.3 448.4Q2498.3 444.2 2493.1 442.2Q2487.9 440.2 2481.0 440.2Q2466.7 440.2 2457.8 449.1Q2448.8 458.0 2448.8 476.6Z M2735.1 571.1Q2708.8 571.1 2686.2 561.6Q2663.7 552.1 2646.7 535.2Q2629.7 518.3 2620.2 495.8Q2610.7 473.3 2610.7 447.4Q2610.7 421.5 2620.2 399.2Q2629.6 376.9 2646.4 360.0Q2663.2 343.1 2685.7 333.7Q2708.2 324.4 2734.4 324.4Q2760.7 324.4 2783.2 333.7Q2805.7 343.1 2822.6 360.0Q2839.5 376.9 2849.0 399.3Q2858.4 421.8 2858.4 447.8Q2858.4 473.6 2849.0 496.1Q2839.5 518.5 2822.7 535.3Q2805.9 552.2 2783.5 561.6Q2761.1 571.1 2735.1 571.1ZM2734.4 528.1Q2757.3 528.1 2774.5 517.9Q2791.6 507.7 2801.3 489.5Q2810.9 471.3 2810.9 447.4Q2810.9 429.6 2805.4 415.0Q2799.9 400.4 2789.7 389.6Q2779.5 378.9 2765.5 373.2Q2751.5 367.4 2734.4 367.4Q2711.8 367.4 2694.7 377.5Q2677.5 387.5 2667.9 405.5Q2658.2 423.5 2658.2 447.4Q2658.2 465.3 2663.7 480.2Q2669.3 495.1 2679.4 505.7Q2689.4 516.3 2703.5 522.2Q2717.6 528.1 2734.4 528.1Z M2912.2 567.4V385.2Q2912.2 365.7 2920.8 350.5Q2929.5 335.4 2945.1 326.6Q2960.7 317.7 2981.6 317.7Q2997.6 317.7 3009.2 323.1Q3020.8 328.5 3030.2 338.2L3001.8 366.6Q2998.1 362.8 2993.6 360.8Q2989.1 358.7 2982.5 358.7Q2970.3 358.7 2963.6 365.4Q2956.9 372.0 2956.9 384.2V567.4ZM2874.3 442.1V403.0H3005.4V442.1Z" fill="#1C2420"/><path d="M1215.9 858.1Q1189.5 858.1 1167.0 848.7Q1144.6 839.3 1127.8 822.5Q1111.0 805.6 1101.9 783.1Q1092.8 760.6 1092.8 734.8Q1092.8 708.8 1101.9 686.4Q1111.0 664.0 1127.8 647.3Q1144.5 630.6 1166.9 621.1Q1189.3 611.7 1215.7 611.7Q1244.5 611.7 1266.2 621.0Q1287.8 630.4 1304.4 646.5L1273.2 677.9Q1263.3 667.0 1249.0 660.8Q1234.7 654.7 1215.7 654.7Q1199.0 654.7 1185.2 660.4Q1171.4 666.1 1161.3 676.8Q1151.2 687.5 1145.7 702.2Q1140.2 717.0 1140.2 734.8Q1140.2 752.6 1145.7 767.4Q1151.2 782.2 1161.3 792.8Q1171.4 803.5 1185.2 809.3Q1199.0 815.0 1215.7 815.0Q1235.9 815.0 1250.2 808.8Q1264.6 802.7 1274.7 791.7L1306.1 823.0Q1289.3 839.4 1267.1 848.7Q1244.9 858.1 1215.9 858.1Z" fill="#D06E53"/><path d="M1410.6 858.1Q1385.9 858.1 1365.9 846.7Q1346.0 835.3 1334.3 815.7Q1322.6 796.1 1322.6 772.0Q1322.6 747.8 1334.3 728.6Q1345.9 709.3 1365.8 697.9Q1385.8 686.5 1410.5 686.5Q1435.6 686.5 1455.5 697.8Q1475.4 709.1 1487.0 728.4Q1498.7 747.8 1498.7 772.0Q1498.7 796.1 1487.1 815.7Q1475.5 835.3 1455.5 846.7Q1435.6 858.1 1410.6 858.1ZM1410.5 816.4Q1423.1 816.4 1432.7 810.8Q1442.4 805.1 1447.7 795.1Q1453.0 785.0 1453.0 772.0Q1453.0 759.1 1447.5 749.3Q1442.0 739.5 1432.6 733.8Q1423.1 728.2 1410.5 728.2Q1398.3 728.2 1388.7 733.9Q1379.1 739.5 1373.7 749.4Q1368.3 759.2 1368.3 772.1Q1368.3 785.0 1373.7 795.1Q1379.1 805.1 1388.7 810.8Q1398.3 816.4 1410.5 816.4Z M1527.0 854.5V690.1H1571.8V854.5ZM1634.2 854.5V757.5Q1634.2 743.1 1625.3 735.1Q1616.4 727.1 1603.2 727.1Q1594.2 727.1 1587.1 730.7Q1580.0 734.4 1575.9 741.1Q1571.8 747.9 1571.8 757.5L1554.3 749.0Q1554.3 729.8 1562.7 716.0Q1571.1 702.1 1585.4 694.4Q1599.7 686.7 1617.5 686.7Q1634.8 686.7 1648.7 694.4Q1662.6 702.0 1670.8 715.8Q1679.0 729.7 1679.0 748.9V854.5ZM1741.4 854.5V757.5Q1741.4 743.1 1732.5 735.1Q1723.6 727.1 1710.4 727.1Q1701.6 727.1 1694.4 730.7Q1687.2 734.4 1683.1 741.1Q1679.0 747.9 1679.0 757.5L1653.4 751.5Q1654.6 731.5 1663.9 717.1Q1673.1 702.7 1688.1 694.7Q1703.1 686.7 1721.5 686.7Q1739.8 686.7 1754.4 694.4Q1769.0 702.2 1777.6 716.4Q1786.2 730.6 1786.2 750.5V854.5Z M1822.1 854.5V690.1H1866.8V854.5ZM1929.3 854.5V757.5Q1929.3 743.1 1920.4 735.1Q1911.4 727.1 1898.2 727.1Q1889.2 727.1 1882.2 730.7Q1875.1 734.4 1871.0 741.1Q1866.8 747.9 1866.8 757.5L1849.4 749.0Q1849.4 729.8 1857.8 716.0Q1866.2 702.1 1880.5 694.4Q1894.8 686.7 1912.6 686.7Q1929.9 686.7 1943.8 694.4Q1957.7 702.0 1965.9 715.8Q1974.1 729.7 1974.1 748.9V854.5ZM2036.5 854.5V757.5Q2036.5 743.1 2027.6 735.1Q2018.6 727.1 2005.4 727.1Q1996.7 727.1 1989.5 730.7Q1982.3 734.4 1978.2 741.1Q1974.1 747.9 1974.1 757.5L1948.4 751.5Q1949.7 731.5 1958.9 717.1Q1968.2 702.7 1983.2 694.7Q1998.2 686.7 2016.6 686.7Q2034.9 686.7 2049.5 694.4Q2064.1 702.2 2072.7 716.4Q2081.3 730.6 2081.3 750.5V854.5Z M2195.9 858.1Q2170.2 858.1 2150.0 847.0Q2129.8 835.9 2118.1 816.4Q2106.4 796.9 2106.4 772.3Q2106.4 747.8 2117.9 728.4Q2129.3 709.1 2149.0 697.8Q2168.7 686.5 2193.0 686.5Q2216.6 686.5 2234.8 697.1Q2253.0 707.7 2263.3 726.3Q2273.7 744.8 2273.7 768.6Q2273.7 772.9 2273.2 777.5Q2272.7 782.1 2271.5 787.8L2133.2 788.0V754.9L2250.7 754.6L2232.5 768.3Q2232.0 753.7 2227.4 743.8Q2222.8 734.0 2214.1 728.8Q2205.5 723.6 2192.8 723.6Q2179.5 723.6 2169.7 729.5Q2160.0 735.4 2154.6 746.1Q2149.3 756.7 2149.3 771.6Q2149.3 786.6 2155.0 797.6Q2160.6 808.6 2171.1 814.5Q2181.6 820.5 2195.6 820.5Q2208.0 820.5 2218.3 816.2Q2228.6 811.9 2236.1 803.4L2262.3 829.7Q2250.2 843.8 2233.0 850.9Q2215.9 858.1 2195.9 858.1Z M2301.3 854.5V690.1H2346.0V854.5ZM2346.0 763.7 2328.6 752.0Q2331.8 721.9 2346.5 704.3Q2361.1 686.7 2388.5 686.7Q2400.6 686.7 2410.1 690.7Q2419.6 694.7 2427.2 703.4L2399.5 735.5Q2395.6 731.3 2390.3 729.3Q2385.1 727.3 2378.2 727.3Q2363.9 727.3 2355.0 736.2Q2346.0 745.1 2346.0 763.7Z M2526.6 858.1Q2501.7 858.1 2481.5 846.8Q2461.4 835.6 2449.8 816.1Q2438.3 796.5 2438.3 772.4Q2438.3 747.9 2449.9 728.5Q2461.5 709.1 2481.7 697.8Q2501.8 686.5 2526.8 686.5Q2546.1 686.5 2562.4 693.6Q2578.7 700.6 2590.8 713.9L2562.0 743.0Q2555.5 735.6 2546.6 731.9Q2537.7 728.2 2526.8 728.2Q2514.3 728.2 2504.6 733.8Q2494.9 739.5 2489.4 749.2Q2484.0 759.0 2484.0 772.2Q2484.0 785.1 2489.4 795.1Q2494.9 805.1 2504.7 810.7Q2514.4 816.4 2526.8 816.4Q2538.0 816.4 2547.0 812.5Q2555.9 808.6 2562.4 801.1L2591.2 830.2Q2578.9 843.8 2562.5 850.9Q2546.2 858.1 2526.6 858.1Z M2695.1 858.1Q2669.4 858.1 2649.2 847.0Q2629.0 835.9 2617.4 816.4Q2605.7 796.9 2605.7 772.3Q2605.7 747.8 2617.2 728.4Q2628.6 709.1 2648.3 697.8Q2668.0 686.5 2692.2 686.5Q2715.9 686.5 2734.1 697.1Q2752.2 707.7 2762.6 726.3Q2773.0 744.8 2773.0 768.6Q2773.0 772.9 2772.5 777.5Q2772.0 782.1 2770.8 787.8L2632.4 788.0V754.9L2750.0 754.6L2731.8 768.3Q2731.3 753.7 2726.7 743.8Q2722.0 734.0 2713.4 728.8Q2704.8 723.6 2692.1 723.6Q2678.8 723.6 2669.0 729.5Q2659.2 735.4 2653.9 746.1Q2648.6 756.7 2648.6 771.6Q2648.6 786.6 2654.3 797.6Q2659.9 808.6 2670.4 814.5Q2680.8 820.5 2694.9 820.5Q2707.3 820.5 2717.6 816.2Q2727.9 811.9 2735.4 803.4L2761.6 829.7Q2749.5 843.8 2732.3 850.9Q2715.1 858.1 2695.1 858.1Z" fill="#1C2420"/></svg>
