<svg xmlns="http://www.w3.org/2000/svg" viewBox="0 0 1000 1000"><path d="M 416.33 527.25 A 250 250 0 1 1 741.48 226.97 L 649.25 251.68 A 154.51 154.51 0 1 0 441.18 434.55 A 88 88 0 0 0 416.33 527.25 Z" fill="#2D432B"/><path d="M 518.24 413.91 A 250 250 0 1 1 615.71 845.65 L 640.43 753.41 A 154.51 154.51 0 1 0 586.09 481.79 A 88 88 0 0 0 518.24 413.91 Z" fill="#2A5D5B"/><path d="M 565.44 558.84 A 250 250 0 1 1 142.8 427.39 L 210.33 494.91 A 154.51 154.51 0 1 0 472.73 583.67 A 88 88 0 0 0 565.44 558.84 Z" fill="#D06E53"/><path d="M 439 500 A 61 61 0 1 1 561 500 A 61 61 0 1 1 439 500 Z" fill="#AA8952"/></svg>
